<mxfile host="app.diagrams.net" modified="2024-07-22T07:45:42.271Z" agent="Mozilla/5.0 (X11; Ubuntu; Linux x86_64; rv:128.0) Gecko/20100101 Firefox/128.0" etag="jtqNgnhFoRQcmEnXmXNJ" version="24.7.1" type="github">
  <diagram name="Page-1" id="2cjp_J4_jKd2KutfVAei">
    <mxGraphModel dx="1364" dy="794" grid="1" gridSize="10" guides="1" tooltips="1" connect="1" arrows="1" fold="1" page="1" pageScale="1" pageWidth="1100" pageHeight="850" math="0" shadow="0">
      <root>
        <mxCell id="0" />
        <mxCell id="1" parent="0" />
        <mxCell id="yFNjsZc0ylgCZ8NsNYiO-2" value="Perluasan Jaringan dan Proses bisnis di dalamnya" style="text;html=1;align=center;verticalAlign=middle;whiteSpace=wrap;rounded=0;fillColor=default;strokeColor=default;" parent="1" vertex="1">
          <mxGeometry x="405" y="140" width="290" height="30" as="geometry" />
        </mxCell>
        <mxCell id="yFNjsZc0ylgCZ8NsNYiO-8" style="edgeStyle=orthogonalEdgeStyle;rounded=0;orthogonalLoop=1;jettySize=auto;html=1;" parent="1" source="yFNjsZc0ylgCZ8NsNYiO-4" target="yFNjsZc0ylgCZ8NsNYiO-5" edge="1">
          <mxGeometry relative="1" as="geometry" />
        </mxCell>
        <mxCell id="yFNjsZc0ylgCZ8NsNYiO-4" value="&lt;div&gt;ISP&lt;/div&gt;" style="ellipse;shape=cloud;whiteSpace=wrap;html=1;" parent="1" vertex="1">
          <mxGeometry x="90" y="180" width="120" height="80" as="geometry" />
        </mxCell>
        <mxCell id="yFNjsZc0ylgCZ8NsNYiO-5" value="&lt;div&gt;Rumah A&lt;/div&gt;" style="html=1;verticalLabelPosition=bottom;align=center;labelBackgroundColor=#ffffff;verticalAlign=top;strokeWidth=2;strokeColor=#0080F0;shadow=0;dashed=0;shape=mxgraph.ios7.icons.home;" parent="1" vertex="1">
          <mxGeometry x="110" y="410" width="80" height="80" as="geometry" />
        </mxCell>
        <mxCell id="yFNjsZc0ylgCZ8NsNYiO-6" value="Rumah C" style="html=1;verticalLabelPosition=bottom;align=center;labelBackgroundColor=#ffffff;verticalAlign=top;strokeWidth=2;strokeColor=#0080F0;shadow=0;dashed=0;shape=mxgraph.ios7.icons.home;" parent="1" vertex="1">
          <mxGeometry x="510" y="580" width="80" height="80" as="geometry" />
        </mxCell>
        <mxCell id="yFNjsZc0ylgCZ8NsNYiO-7" value="&lt;div&gt;Rumah B&lt;/div&gt;" style="html=1;verticalLabelPosition=bottom;align=center;labelBackgroundColor=#ffffff;verticalAlign=top;strokeWidth=2;strokeColor=#0080F0;shadow=0;dashed=0;shape=mxgraph.ios7.icons.home;" parent="1" vertex="1">
          <mxGeometry x="510" y="280" width="80" height="80" as="geometry" />
        </mxCell>
        <mxCell id="yFNjsZc0ylgCZ8NsNYiO-9" style="edgeStyle=orthogonalEdgeStyle;rounded=0;orthogonalLoop=1;jettySize=auto;html=1;entryX=0;entryY=0.663;entryDx=0;entryDy=0;entryPerimeter=0;" parent="1" source="yFNjsZc0ylgCZ8NsNYiO-5" target="yFNjsZc0ylgCZ8NsNYiO-7" edge="1">
          <mxGeometry relative="1" as="geometry" />
        </mxCell>
        <mxCell id="yFNjsZc0ylgCZ8NsNYiO-13" style="edgeStyle=orthogonalEdgeStyle;rounded=0;orthogonalLoop=1;jettySize=auto;html=1;entryX=0;entryY=0.625;entryDx=0;entryDy=0;entryPerimeter=0;" parent="1" source="yFNjsZc0ylgCZ8NsNYiO-5" target="yFNjsZc0ylgCZ8NsNYiO-6" edge="1">
          <mxGeometry relative="1" as="geometry" />
        </mxCell>
        <mxCell id="HX-w1Pne78Ey6BbzaHxW-1" value="&lt;ul&gt;&lt;li&gt;2 Unit Android&lt;/li&gt;&lt;li&gt;3 Unit iPhone&lt;/li&gt;&lt;li&gt;3 Unit Laptop (Windows &amp;amp; macOS)&lt;/li&gt;&lt;li&gt;1 Unit Komputer&lt;/li&gt;&lt;li&gt;1 Unit PS4&lt;br&gt;&lt;/li&gt;&lt;/ul&gt;" style="text;strokeColor=none;fillColor=none;html=1;whiteSpace=wrap;verticalAlign=middle;overflow=hidden;" vertex="1" parent="1">
          <mxGeometry x="610" y="270" width="340" height="120" as="geometry" />
        </mxCell>
        <mxCell id="HX-w1Pne78Ey6BbzaHxW-4" value="&lt;ul style=&quot;font-size: 14px;&quot;&gt;&lt;li style=&quot;font-size: 14px;&quot;&gt;40 Client&lt;br style=&quot;font-size: 14px;&quot;&gt;&lt;/li&gt;&lt;li style=&quot;font-size: 14px;&quot;&gt;8 Unit Komputer&lt;/li&gt;&lt;li style=&quot;font-size: 14px;&quot;&gt;15 Unit Laptop&lt;/li&gt;&lt;li style=&quot;font-size: 14px;&quot;&gt;2 Unit Server&lt;/li&gt;&lt;li style=&quot;font-size: 14px;&quot;&gt;BW 150 mbps&lt;br style=&quot;font-size: 14px;&quot;&gt;&lt;/li&gt;&lt;/ul&gt;" style="text;strokeColor=none;fillColor=none;html=1;whiteSpace=wrap;verticalAlign=middle;overflow=hidden;fontSize=14;" vertex="1" parent="1">
          <mxGeometry x="610" y="560" width="340" height="120" as="geometry" />
        </mxCell>
      </root>
    </mxGraphModel>
  </diagram>
</mxfile>
